#!OML:ASF F:\VICON\USERDATA\INSTALL\rory3\rory3.ASF
:FULLY-SPECIFIED
:DEGREES
728
root -18.6081 17.5239 9.26686 -2.34078 -5.85075 1.34649
lowerback 14.0811 0.775273 -6.17804
upperback 0.809636 0.00625903 -0.462069
thorax -7.05543 0.190464 3.00262
lowerneck -13.0449 -8.67715 -11.6123
upperneck 30.5711 -14.6171 14.4229
head 14.8133 -6.04125 5.35859
rclavicle 4.12478e-015 -1.19271e-015
rhumerus -35.2543 -23.2504 -74.8101
rradius 36.6898
rwrist -1.66483
rhand -28.1632 8.45422
rfingers 7.12502
rthumb -1.5435 -21.5199
lclavicle 4.12478e-015 -1.19271e-015
lhumerus -29.9538 4.6282 82.7138
lradius 29.3133
lwrist -6.19699
lhand -22.0349 27.3445
lfingers 7.12502
lthumb 4.37506 57.2793
rfemur -17.2411 -7.88973 17.6893
rtibia 52.6721
rfoot -17.939 14.5856
rtoes -24.0979
lfemur -8.70471 -2.71553 -22.1616
ltibia 29.2732
lfoot -14.9095 -13.5676
ltoes 0.237218
729
root -18.6589 17.5288 9.27354 -2.49236 -5.8069 1.53587
lowerback 14.2237 0.833371 -6.26711
upperback 0.775191 0.0497542 -0.554017
thorax -7.17697 0.217207 2.94603
lowerneck -13.0523 -8.69737 -11.7149
upperneck 30.5855 -14.5858 14.3312
head 14.8149 -6.04887 5.34336
rclavicle -1.21756e-014 -3.57812e-015
rhumerus -35.5194 -23.4611 -75.0459
rradius 36.2115
rwrist -1.0333
rhand -28.4786 8.34242
rfingers 7.12502
rthumb -1.84814 -21.6293
lclavicle -1.21756e-014 -3.57812e-015
lhumerus -29.6832 4.90002 82.4554
lradius 29.2788
lwrist -6.36951
lhand -21.8162 27.8227
lfingers 7.12502
lthumb 4.58621 57.753
rfemur -17.5113 -8.23651 17.2008
rtibia 53.352
rfoot -17.5747 14.0213
rtoes -19.9854
lfemur -8.36634 -3.03726 -22.2637
ltibia 28.9745
lfoot -14.7603 -13.2423
ltoes -0.197515
730
root -18.714 17.5373 9.28386 -2.67678 -5.7511 1.69954
lowerback 14.3043 0.874213 -6.39734
upperback 0.766229 0.0713624 -0.616369
thorax -7.23434 0.232747 2.94852
lowerneck -13.0651 -8.68381 -11.7754
upperneck 30.6166 -14.5147 14.2321
head 14.813 -6.03504 5.32645
rclavicle 5.2181e-015 7.15625e-015
rhumerus -35.7379 -23.7112 -75.2422
rradius 35.6938
rwrist -0.213036
rhand -28.5239 8.25236
rfingers 7.12502
rthumb -1.89192 -21.719
lclavicle 5.2181e-015 7.15625e-015
lhumerus -29.4751 5.35474 82.1655
lradius 29.3805
lwrist -6.35717
lhand -21.4231 28.1422
lfingers 7.12502
lthumb 4.96582 58.0641
rfemur -17.6471 -8.43504 16.7338
rtibia 53.9213
rfoot -17.3878 12.5448
rtoes -16.3049
lfemur -7.91887 -3.25435 -22.3147
ltibia 28.6082
lfoot -14.9006 -12.7949
ltoes -1.9204
731
root -18.776 17.5468 9.29628 -2.86243 -5.75141 1.86008
lowerback 14.3853 0.944229 -6.58771
upperback 0.747544 0.12086 -0.679587
thorax -7.30565 0.264466 2.97813
lowerneck -13.1221 -8.66135 -11.7847
upperneck 30.6542 -14.4359 14.1183
head 14.8163 -6.01137 5.29469
rclavicle 8.39865e-015 1.59028e-014
rhumerus -36.0851 -23.8292 -75.4947
rradius 35.3067
rwrist 0.505292
rhand -28.8853 8.84778
rfingers 7.12502
rthumb -2.24098 -21.1202
lclavicle 8.39865e-015 1.59028e-014
lhumerus -29.3884 5.69799 81.8925
lradius 29.5879
lwrist -6.28495
lhand -21.1229 28.5848
lfingers 7.12502
lthumb 5.25573 58.4996
rfemur -17.7484 -8.48275 16.2968
rtibia 54.3441
rfoot -17.5614 9.86824
rtoes -20.4661
lfemur -7.42892 -3.32404 -22.3152
ltibia 28.2176
lfoot -15.1108 -12.4106
ltoes -3.54589
732
root -18.838 17.5547 9.31042 -2.99435 -5.73076 1.94519
lowerback 14.366 0.991146 -6.71389
upperback 0.784027 0.164887 -0.687853
thorax -7.26052 0.287592 3.03165
lowerneck -13.2336 -8.70145 -11.8565
upperneck 30.5738 -14.4015 13.9832
head 14.7896 -6.01515 5.2472
rclavicle 7.92654e-015 -1.70955e-014
rhumerus -36.2695 -23.8426 -75.7943
rradius 34.9544
rwrist 1.33242
rhand -29.3168 9.60122
rfingers 7.12502
rthumb -2.65763 -20.362
lclavicle 7.92654e-015 -1.70955e-014
lhumerus -29.1481 6.23877 81.6357
lradius 29.5843
lwrist -6.437
lhand -21.1643 28.7767
lfingers 7.12502
lthumb 5.21574 58.6925
rfemur -17.8287 -8.48428 15.8997
rtibia 54.5853
rfoot -17.8349 6.46185
rtoes -22.0363
lfemur -7.01768 -3.42047 -22.2239
ltibia 27.8564
lfoot -15.2154 -12.1477
ltoes -4.69687
733
root -18.8975 17.5638 9.32101 -3.07119 -5.64196 1.87823
lowerback 14.2866 1.00472 -6.64687
upperback 0.85111 0.207307 -0.634577
thorax -7.14776 0.301921 3.0426
lowerneck -13.3352 -8.73561 -12.0824
upperneck 30.4379 -14.3542 13.9827
head 14.7628 -6.01698 5.28519
rclavicle -2.36057e-015 2.42517e-014
rhumerus -36.3411 -23.8852 -76.0214
rradius 34.5732
rwrist 2.26127
rhand -29.4768 9.49223
rfingers 7.12502
rthumb -2.81221 -20.469
lclavicle -2.36057e-015 2.42517e-014
lhumerus -28.7875 6.78173 81.4356
lradius 29.4824
lwrist -6.5422
lhand -21.3705 28.8595
lfingers 7.12502
lthumb 5.01657 58.7801
rfemur -17.8186 -8.42791 15.6106
rtibia 54.6431
rfoot -17.9127 3.21712
rtoes -19.995
lfemur -6.72667 -3.50577 -21.9506
ltibia 27.5802
lfoot -15.228 -12.1319
ltoes -5.69656
734
root -18.9583 17.5782 9.33014 -3.14585 -5.55378 1.68492
lowerback 14.2433 1.01299 -6.45592
upperback 0.893532 0.260659 -0.551373
thorax -7.08226 0.320262 3.01321
lowerneck -13.3474 -8.72711 -12.2267
upperneck 30.2877 -14.2659 13.9683
head 14.6919 -5.99777 5.31349
rclavicle -6.95746e-016 1.35174e-014
rhumerus -36.4879 -24.0652 -76.1418
rradius 34.1604
rwrist 3.39188
rhand -29.5228 9.32774
rfingers 7.12502
rthumb -2.85658 -20.6329
lclavicle -6.95746e-016 1.35174e-014
lhumerus -28.5346 7.35098 81.2234
lradius 29.5529
lwrist -6.5744
lhand -21.1895 28.8417
lfingers 7.12502
lthumb 5.19138 58.7581
rfemur -17.6997 -8.20628 15.431
rtibia 54.5131
rfoot -17.78 0.424393
rtoes -16.7399
lfemur -6.42923 -3.60761 -21.522
ltibia 27.3339
lfoot -15.2427 -12.1367
ltoes -6.75121
735
root -19.0195 17.5816 9.33862 -3.20433 -5.5509 1.55586
lowerback 14.2726 1.04392 -6.3362
upperback 0.847425 0.321166 -0.493436
thorax -7.15387 0.350027 2.99497
lowerneck -13.2487 -8.71169 -12.2432
upperneck 30.0723 -14.17 13.8558
head 14.5419 -5.978 5.27869
rclavicle 9.96408e-015 1.15295e-014
rhumerus -36.7012 -24.2598 -76.2006
rradius 33.6924
rwrist 4.52857
rhand -29.3729 10.0837
rfingers 7.12502
rthumb -2.71183 -19.8788
lclavicle 9.96408e-015 1.15295e-014
lhumerus -28.4428 7.80477 81.0442
lradius 29.6593
lwrist -6.28789
lhand -21.3428 28.8969
lfingers 7.12502
lthumb 5.0434 58.8169
rfemur -17.5804 -7.91366 15.1536
rtibia 54.2293
rfoot -17.5772 -2.18597
rtoes -14.7836
lfemur -6.16732 -3.60608 -21.1557
ltibia 27.0943
lfoot -15.2368 -12.2248
ltoes -6.91322
736
root -19.0815 17.5852 9.35029 -3.22228 -5.45863 1.54935
lowerback 14.2641 1.01337 -6.33234
upperback 0.754354 0.280477 -0.466909
thorax -7.24557 0.335486 3.02907
lowerneck -12.9402 -8.69123 -12.4155
upperneck 29.711 -14.0802 13.8997
head 14.3126 -5.9735 5.3362
rclavicle -7.65321e-015 2.78299e-015
rhumerus -37.0033 -24.3357 -76.2871
rradius 33.4475
rwrist 5.72524
rhand -29.0284 10.4336
rfingers 7.12502
rthumb -2.37914 -19.5329
lclavicle -7.65321e-015 2.78299e-015
lhumerus -28.5865 8.28455 80.8111
lradius 29.8995
lwrist -5.91061
lhand -21.454 28.8705
lfingers 7.12502
lthumb 4.93598 58.793
rfemur -17.4335 -7.56894 14.6956
rtibia 53.8218
rfoot -17.353 -4.57882
rtoes -13.1858
lfemur -5.95819 -3.71112 -20.9357
ltibia 26.8481
lfoot -15.1975 -12.2893
ltoes -7.01031
737
root -19.1448 17.5985 9.36749 -3.31182 -5.36043 1.36051
lowerback 14.2136 0.991069 -6.13835
upperback 0.73173 0.291529 -0.386558
thorax -7.24174 0.336359 3.00315
lowerneck -12.6195 -8.66336 -12.6272
upperneck 29.3532 -14.0103 14.0532
head 14.1036 -5.96961 5.44402
rclavicle -4.82053e-015 -1.19271e-015
rhumerus -37.3364 -24.4007 -76.3356
rradius 33.4674
rwrist 7.21342
rhand -28.8221 8.60045
rfingers 7.12502
rthumb -2.17992 -21.3682
lclavicle -4.82053e-015 -1.19271e-015
lhumerus -28.7043 8.51394 80.6557
lradius 30.2256
lwrist -5.21374
lhand -21.415 28.6001
lfingers 7.12502
lthumb 4.97365 58.5217
rfemur -17.1229 -7.05269 14.3949
rtibia 53.3222
rfoot -16.9623 -6.72286
rtoes -10.8264
lfemur -5.62727 -3.84222 -20.515
ltibia 26.5674
lfoot -15.0664 -12.3809
ltoes -6.98895
